Coordinates
version=1
nRows=6
nColumns=46
inDegrees=yes

Units are S.I. units (second, meters, Newtons, ...)
Angles are in degrees.

endheader
time	pelvis_tilt	pelvis_list	pelvis_rotation	pelvis_tx	pelvis_ty	pelvis_tz	bb_angle	bb_tx	bb_ty	bb_tz	hip_flexion_r	hip_adduction_r	hip_rotation_r	knee_angle_r	knee_angle_r_beta	ankle_angle_r	subtalar_angle_r	mtp_angle_r	crank_angle_r	hip_flexion_l	hip_adduction_l	hip_rotation_l	knee_angle_l	knee_angle_l_beta	ankle_angle_l	subtalar_angle_l	mtp_angle_l	crank_angle_l	lumbar_extension	lumbar_bending	lumbar_rotation	arm_flex_r	arm_add_r	arm_rot_r	elbow_flex_r	pro_sup_r	wrist_flex_r	wrist_dev_r	arm_flex_l	arm_add_l	arm_rot_l	elbow_flex_l	pro_sup_l	wrist_flex_l	wrist_dev_l
      0.00500000	    -17.42018490	      3.43509619	      2.58845945	      0.12370971	      1.07035450	     -0.25452051	      0.00000000	      0.50000000	      0.00000000	      0.25000000	     51.17685907	     -9.68039365	      0.07362086	     71.75612989	      1.25238072	     15.02977353	     -5.40506509	      0.00000000	      0.00000000	     85.80434152	     -1.29122671	     -2.17797877	     90.07786375	      1.57215531	     22.39238861	     -7.72356661	      0.00000000	      0.00000000	    -47.13220350	     -0.92249537	     -3.87795952	     89.57206863	     -5.01412590	     54.91656500	     15.83673092	     22.98325681	      0.00000000	      0.00000000	     89.66011967	     -1.36225570	     56.21992143	     15.06201027	     21.47417951	      0.00000000	      0.00000000
      0.01000000	    -17.40529102	      3.42358169	      2.58151755	      0.12372237	      1.07042940	     -0.25451737	      0.00000000	      0.50000000	      0.00000000	      0.25000000	     51.15364614	     -9.66250725	      0.07101567	     71.74329727	      1.25215675	     15.03567392	     -5.41655165	      0.00000000	      0.00000000	     85.78004641	     -1.30221732	     -2.18128684	     90.06833790	      1.57198905	     22.39215179	     -7.62408532	      0.00000000	      0.00000000	    -47.19340303	     -0.91006816	     -3.87337569	     89.56235391	     -4.68312596	     52.32664999	     15.79492955	     24.06049197	      0.00000000	      0.00000000	     89.65210794	     -1.08613667	     53.49018517	     15.12881997	     22.54135089	      0.00000000	      0.00000000
      0.01500000	    -17.39212449	      3.43324225	      2.56114689	      0.12368956	      1.07044871	     -0.25436418	      0.00000000	      0.50000000	      0.00000000	      0.25000000	     51.15624615	     -9.63219510	      0.10380823	     71.76293748	      1.25249954	     15.00215465	     -5.44855617	      0.00000000	      0.00000000	     85.76150504	     -1.33452151	     -2.18029367	     90.05297298	      1.57172088	     22.39106535	     -7.54139860	      0.00000000	      0.00000000	    -47.16589832	     -0.95377391	     -3.84939739	     89.57404978	     -5.02697523	     54.74608590	     15.58036626	     24.63117197	      0.00000000	      0.00000000	     89.66293742	     -1.37467929	     56.22604667	     14.86643760	     22.64895142	      0.00000000	      0.00000000
      0.02000000	    -17.24359596	      3.56995644	      2.45639076	      0.12395029	      1.07078668	     -0.25436973	      0.00000000	      0.50000000	      0.00000000	      0.25000000	     51.02061228	     -9.69210280	      0.22552238	     71.77094177	      1.25263924	     14.98325761	     -5.43879061	      0.00000000	      0.00000000	     85.55529361	     -1.46078597	     -2.39612954	     89.95561851	      1.57002172	     22.27080248	     -7.55910886	      0.00000000	      0.00000000	    -47.33275556	     -1.11671665	     -3.83259172	     89.57522341	     -5.09229225	     54.64123981	     15.37454780	     25.93231628	      0.00000000	      0.00000000	     89.66366658	     -1.39856327	     55.75887135	     15.04233946	     23.53725441	      0.00000000	      0.00000000
      0.02500000	    -17.27833657	      3.54673470	      2.51424399	      0.12382532	      1.07080352	     -0.25432921	      0.00000000	      0.50000000	      0.00000000	      0.25000000	     51.04165226	     -9.69552748	      0.18853461	     71.74880331	      1.25225285	     14.96518510	     -5.50763066	      0.00000000	      0.00000000	     85.54089300	     -1.39630863	     -2.34278258	     89.89554704	      1.56897328	     22.35177264	     -7.50873496	      0.00000000	      0.00000000	    -47.31969462	     -1.07820262	     -3.84761003	     89.57204094	     -4.99221365	     53.70273893	     15.45823162	     26.11442416	      0.00000000	      0.00000000	     89.66197389	     -1.23625984	     54.77237320	     15.08758233	     23.68834679	      0.00000000	      0.00000000
      0.03000000	    -17.22207312	      3.51153194	      2.52197030	      0.12370699	      1.07074557	     -0.25436417	      0.00000000	      0.50000000	      0.00000000	      0.25000000	     51.00708677	     -9.67858553	      0.16854588	     71.79651763	      1.25308562	     14.98398890	     -5.45302397	      0.00000000	      0.00000000	     85.53710733	     -1.30563054	     -2.20727229	     89.93788953	      1.56971229	     22.28414213	     -7.60707311	      0.00000000	      0.00000000	    -47.46746089	     -1.08785098	     -3.85395305	     89.58324545	     -5.19824765	     53.97962075	     15.95744663	     25.00152959	      0.00000000	      0.00000000	     89.67316530	     -1.34672807	     54.98477195	     15.54347792	     22.61189653	      0.00000000	      0.00000000
